<?xml version="1.0" encoding="UTF-8" standalone="no"?>
<!DOCTYPE svg PUBLIC "-//W3C//DTD SVG 1.1//EN"
 "http://www.w3.org/Graphics/SVG/1.1/DTD/svg11.dtd">
<!-- Generated by graphviz version 2.38.0 (20140413.2041)
 -->
<!-- Title: %3 Pages: 1 -->
<svg width="215pt" height="215pt"
 viewBox="0.00 0.00 214.76 214.76" xmlns="http://www.w3.org/2000/svg" xmlns:xlink="http://www.w3.org/1999/xlink">
<g id="graph0" class="graph" transform="scale(1 1) rotate(0) translate(4 210.756)">
<title>%3</title>
<polygon fill="white" stroke="none" points="-4,4 -4,-210.756 210.756,-210.756 210.756,4 -4,4"/>
<!-- node0 -->
<g id="node1" class="node"><title>node0</title>
<ellipse fill="none" stroke="black" cx="103.378" cy="-25.3125" rx="25.1264" ry="25.1264"/>
<text text-anchor="middle" x="103.378" y="-22.8125" font-family="Helvetica,sans-Serif" font-size="10.00">node0</text>
</g>
<!-- node1 -->
<g id="node2" class="node"><title>node1</title>
<ellipse fill="none" stroke="black" cx="181.444" cy="-103.378" rx="25.1264" ry="25.1264"/>
<text text-anchor="middle" x="181.444" y="-100.878" font-family="Helvetica,sans-Serif" font-size="10.00">node1</text>
</g>
<!-- node0&#45;&gt;node1 -->
<g id="edge1" class="edge"><title>node0&#45;&gt;node1</title>
<path fill="none" stroke="black" d="M128.635,-50.5697C137.499,-59.4335 147.45,-69.3845 156.304,-78.2387"/>
<polygon fill="black" stroke="black" points="131.03,-48.0147 121.484,-43.4185 126.08,-52.9645 131.03,-48.0147"/>
<polygon fill="black" stroke="black" points="153.89,-80.774 163.436,-85.3702 158.839,-75.8242 153.89,-80.774"/>
</g>
<!-- node2 -->
<g id="node3" class="node"><title>node2</title>
<ellipse fill="none" stroke="black" cx="103.378" cy="-181.444" rx="25.1264" ry="25.1264"/>
<text text-anchor="middle" x="103.378" y="-178.944" font-family="Helvetica,sans-Serif" font-size="10.00">node2</text>
</g>
<!-- node0&#45;&gt;node2 -->
<g id="edge5" class="edge"><title>node0&#45;&gt;node2</title>
<path fill="none" stroke="black" d="M103.378,-60.8767C103.378,-86.2626 103.378,-120.274 103.378,-145.701"/>
<polygon fill="black" stroke="black" points="106.878,-60.7451 103.378,-50.7451 99.8781,-60.7452 106.878,-60.7451"/>
<polygon fill="black" stroke="black" points="99.8781,-146.022 103.378,-156.022 106.878,-146.022 99.8781,-146.022"/>
</g>
<!-- node1&#45;&gt;node2 -->
<g id="edge2" class="edge"><title>node1&#45;&gt;node2</title>
<path fill="none" stroke="black" d="M156.186,-128.635C147.323,-137.499 137.371,-147.45 128.517,-156.304"/>
<polygon fill="black" stroke="black" points="158.741,-131.03 163.338,-121.484 153.792,-126.08 158.741,-131.03"/>
<polygon fill="black" stroke="black" points="125.982,-153.89 121.386,-163.436 130.932,-158.839 125.982,-153.89"/>
</g>
<!-- node3 -->
<g id="node4" class="node"><title>node3</title>
<ellipse fill="none" stroke="black" cx="25.3125" cy="-103.378" rx="25.1264" ry="25.1264"/>
<text text-anchor="middle" x="25.3125" y="-100.878" font-family="Helvetica,sans-Serif" font-size="10.00">node3</text>
</g>
<!-- node1&#45;&gt;node3 -->
<g id="edge6" class="edge"><title>node1&#45;&gt;node3</title>
<path fill="none" stroke="black" d="M145.879,-103.378C120.493,-103.378 86.4818,-103.378 61.0555,-103.378"/>
<polygon fill="black" stroke="black" points="146.011,-106.878 156.011,-103.378 146.011,-99.8781 146.011,-106.878"/>
<polygon fill="black" stroke="black" points="60.7343,-99.8781 50.7343,-103.378 60.7342,-106.878 60.7343,-99.8781"/>
</g>
<!-- node2&#45;&gt;node3 -->
<g id="edge3" class="edge"><title>node2&#45;&gt;node3</title>
<path fill="none" stroke="black" d="M78.1208,-156.186C69.257,-147.323 59.306,-137.371 50.4519,-128.517"/>
<polygon fill="black" stroke="black" points="75.726,-158.741 85.272,-163.338 80.6758,-153.792 75.726,-158.741"/>
<polygon fill="black" stroke="black" points="52.8663,-125.982 43.3203,-121.386 47.9165,-130.932 52.8663,-125.982"/>
</g>
<!-- node3&#45;&gt;node0 -->
<g id="edge4" class="edge"><title>node3&#45;&gt;node0</title>
<path fill="none" stroke="black" d="M50.5697,-78.1208C59.4335,-69.257 69.3845,-59.306 78.2387,-50.4519"/>
<polygon fill="black" stroke="black" points="48.0147,-75.726 43.4185,-85.272 52.9645,-80.6758 48.0147,-75.726"/>
<polygon fill="black" stroke="black" points="80.774,-52.8663 85.3702,-43.3203 75.8242,-47.9165 80.774,-52.8663"/>
</g>
</g>
</svg>
